<?xml version="1.0" encoding="UTF-8" standalone="no"?>
<!-- Created with Inkscape (http://www.inkscape.org/) -->

<svg
   width="61.413971mm"
   height="65.380798mm"
   viewBox="0 0 61.413971 65.380798"
   version="1.1"
   id="svg1"
   inkscape:version="1.4.3 (0d15f75042, 2025-12-25)"
   sodipodi:docname="drawing.svg"
   xmlns:inkscape="http://www.inkscape.org/namespaces/inkscape"
   xmlns:sodipodi="http://sodipodi.sourceforge.net/DTD/sodipodi-0.dtd"
   xmlns="http://www.w3.org/2000/svg"
   xmlns:svg="http://www.w3.org/2000/svg">
  <sodipodi:namedview
     id="namedview1"
     pagecolor="#ffffff"
     bordercolor="#999999"
     borderopacity="1"
     inkscape:showpageshadow="0"
     inkscape:pageopacity="0"
     inkscape:pagecheckerboard="0"
     inkscape:deskcolor="#d1d1d1"
     inkscape:document-units="mm"
     inkscape:current-layer="layer1" />
  <defs
     id="defs1">
    <inkscape:path-effect
       effect="lattice2"
       gridpoint0="41.26,19.574611"
       gridpoint1="100.87665,19.574611"
       gridpoint2="41.257212,78.841278"
       gridpoint3="100.87665,78.841278"
       gridpoint4="56.994005,14.167048"
       gridpoint5="84.931876,25.606124"
       gridpoint6="55.954088,72.809765"
       gridpoint7="86.179775,73.017749"
       gridpoint8x9="71.274915,17.078813"
       gridpoint10x11="71.690881,86.952623"
       gridpoint12="46.456791,34.183295"
       gridpoint13="102.95648,34.183295"
       gridpoint14="37.929481,64.232595"
       gridpoint15="97.132954,64.232595"
       gridpoint16="56.162072,34.391278"
       gridpoint17="85.971792,34.391278"
       gridpoint18="52.834341,63.400662"
       gridpoint19="81.396161,64.440578"
       gridpoint20x21="71.274915,31.687497"
       gridpoint22x23="66.283318,65.064527"
       gridpoint24x26="44.37696,49.207945"
       gridpoint25x27="101.29262,49.831894"
       gridpoint28x30="58.241904,47.544079"
       gridpoint29x31="85.763809,47.54408"
       gridpoint32x33x34x35="73.770713,50.455844"
       id="path-effect1886"
       is_visible="true"
       lpeversion="1"
       horizontal_mirror="false"
       vertical_mirror="false"
       perimetral="false"
       live_update="true" />
  </defs>
  <g
     inkscape:label="Layer 1"
     inkscape:groupmode="layer"
     id="layer1"
     transform="translate(-81.083488,-54.96635)">
    <g
       id="g1886"
       transform="translate(40.599247,39.057526)"
       inkscape:path-effect="#path-effect1886">
      <g
         id="g1883"
         transform="translate(-1.15875e-5,3.3378408)">
        <path
           style="clip-rule:evenodd;fill:#3686bf;fill-opacity:1;fill-rule:evenodd;stroke:#000000;stroke-width:0.529167;stroke-linecap:square;stroke-miterlimit:2;stroke-dasharray:none;stroke-dashoffset:4.2;stroke-opacity:1"
           id="rect897-5"
           width="7.9375"
           height="7.9375"
           x="-100.87666"
           y="-32.111771"
           inkscape:tile-x0="49.076233"
           inkscape:tile-y0="-66.555328"
           transform="scale(-1)"
           sodipodi:type="rect"
           d="m -101.5405,-32.419966 c 2.807726,-0.323784 7.880305,-0.256354 7.880305,-0.256354 -0.115649,2.550568 0.06912,7.562484 0.06912,7.562484 -1.422008,-0.03806 -3.087041,0.0074 -4.90988,0.263095 -1.674478,0.234888 -3.068358,0.612806 -3.068358,0.612806 -0.1,-2.715217 -0.0781,-5.444033 0.0288,-8.182031 z" />
        <path
           style="clip-rule:evenodd;fill:#aacfe6;fill-opacity:1;fill-rule:evenodd;stroke:#000000;stroke-width:0.529167;stroke-linecap:square;stroke-miterlimit:2;stroke-dasharray:none;stroke-dashoffset:4.2;stroke-opacity:1"
           id="rect898-6"
           width="7.9375"
           height="7.9375"
           x="-100.87666"
           y="-24.174271"
           inkscape:tile-x0="49.076233"
           inkscape:tile-y0="-66.555328"
           transform="scale(-1)"
           sodipodi:type="rect"
           d="m -101.56931,-24.237935 c 1.570193,-0.409383 3.24488,-0.695868 5.059711,-0.819279 1.641157,-0.111601 2.918527,-0.05662 2.918527,-0.05662 0.170064,2.487205 0.972238,7.32761 0.972238,7.32761 -1.489954,0.02926 -3.227542,0.178546 -5.109524,0.603325 -1.728785,0.390202 -3.148302,0.94613 -3.148302,0.94613 -0.37185,-2.611887 -0.59276,-5.288268 -0.69265,-8.001164 z" />
        <path
           style="clip-rule:evenodd;fill:#f6faff;fill-opacity:1;fill-rule:evenodd;stroke:#000000;stroke-width:0.529167;stroke-linecap:square;stroke-miterlimit:2;stroke-dasharray:none;stroke-dashoffset:4.2;stroke-opacity:1"
           id="rect901-9"
           width="7.9375"
           height="7.9375"
           x="-92.939148"
           y="-32.111771"
           inkscape:tile-x0="49.076233"
           inkscape:tile-y0="-66.555328"
           transform="scale(-1)"
           sodipodi:type="rect"
           d="m -93.66018,-32.676319 c 2.480032,0.120804 7.173833,0.793245 7.173833,0.793245 -0.04996,2.622558 0.404625,7.665285 0.404625,7.665285 -1.352641,-0.258288 -2.960505,-0.529689 -4.655972,-0.705742 -1.56971,-0.162995 -2.853364,-0.190304 -2.853364,-0.190304 -0.170752,-2.497258 -0.185226,-5.001908 -0.06912,-7.562484 z" />
        <path
           style="clip-rule:evenodd;fill:#214d95;fill-opacity:1;fill-rule:evenodd;stroke:#000000;stroke-width:0.529167;stroke-linecap:square;stroke-miterlimit:2;stroke-dasharray:none;stroke-dashoffset:4.2;stroke-opacity:1"
           id="rect902-3"
           width="7.9375"
           height="7.9375"
           x="-92.939148"
           y="-24.174271"
           inkscape:tile-x0="49.076233"
           inkscape:tile-y0="-66.555328"
           transform="scale(-1)"
           sodipodi:type="rect"
           d="m -93.591058,-25.113835 c 2.563382,0.06861 7.509336,0.896046 7.509336,0.896046 0.313573,2.480881 1.375483,7.172048 1.375483,7.172048 -1.430798,-0.26024 -3.126678,-0.520517 -4.914383,-0.653323 -1.653812,-0.12286 -2.998196,-0.08716 -2.998196,-0.08716 -0.478686,-2.402347 -0.801586,-4.831797 -0.97224,-7.327609 z" />
        <path
           style="clip-rule:evenodd;fill:#58a0ce;fill-opacity:1;fill-rule:evenodd;stroke:#000000;stroke-width:0.529167;stroke-linecap:square;stroke-miterlimit:2;stroke-dasharray:none;stroke-dashoffset:4.2;stroke-opacity:1"
           id="rect905-7"
           width="7.9375"
           height="7.9375"
           x="-85.001648"
           y="-32.111771"
           inkscape:tile-x0="49.076233"
           inkscape:tile-y0="-66.555328"
           transform="scale(-1)"
           sodipodi:type="rect"
           d="m -86.486347,-31.883074 c 2.320963,0.37622 6.93191,1.292824 6.93191,1.292824 0.0475,2.754674 0.806091,7.976553 0.806091,7.976553 -2.441815,-0.552987 -7.333376,-1.604092 -7.333376,-1.604092 -0.315821,-2.498666 -0.45492,-5.024901 -0.404625,-7.665285 z" />
        <path
           style="clip-rule:evenodd;fill:#2869ae;fill-opacity:1;fill-rule:evenodd;stroke:#000000;stroke-width:0.529167;stroke-linecap:square;stroke-miterlimit:2;stroke-dasharray:none;stroke-dashoffset:4.2;stroke-opacity:1"
           id="rect906-4"
           width="7.9375"
           height="7.9375"
           x="-85.001648"
           y="-24.174271"
           inkscape:tile-x0="49.076233"
           inkscape:tile-y0="-66.555328"
           transform="scale(-1)"
           sodipodi:type="rect"
           d="m -86.081722,-24.217789 c 2.458747,0.469499 7.333376,1.604092 7.333376,1.604092 0.467891,2.552833 1.77205,7.271334 1.77205,7.271334 -1.307981,-0.309319 -3.178338,-0.757852 -4.817939,-1.115819 -1.612524,-0.352056 -2.912004,-0.58756 -2.912004,-0.58756 -0.581385,-2.315158 -1.059259,-4.670195 -1.375483,-7.172047 z" />
        <path
           style="clip-rule:evenodd;fill:#3686bf;fill-opacity:1;fill-rule:evenodd;stroke:#000000;stroke-width:0.529167;stroke-linecap:square;stroke-miterlimit:2;stroke-dasharray:none;stroke-dashoffset:4.2;stroke-opacity:1"
           id="rect909-5"
           width="7.9375"
           height="7.9375"
           x="-77.064148"
           y="-32.111771"
           inkscape:tile-x0="49.076233"
           inkscape:tile-y0="-66.555328"
           transform="scale(-1)"
           sodipodi:type="rect"
           d="m -79.554437,-30.59025 c 2.311361,0.455405 7.022124,1.269053 7.022124,1.269053 0.146167,2.82705 1.158071,8.176333 1.158071,8.176333 -2.488348,-0.392665 -7.374104,-1.468833 -7.374104,-1.468833 -0.472214,-2.57642 -0.758184,-5.19827 -0.806091,-7.976553 z" />
        <path
           style="clip-rule:evenodd;fill:#214d95;fill-opacity:1;fill-rule:evenodd;stroke:#000000;stroke-width:0.529167;stroke-linecap:square;stroke-miterlimit:2;stroke-dasharray:none;stroke-dashoffset:4.2;stroke-opacity:1"
           id="rect910-2"
           width="7.9375"
           height="7.9375"
           x="-77.064148"
           y="-24.174271"
           inkscape:tile-x0="49.076233"
           inkscape:tile-y0="-66.555328"
           transform="scale(-1)"
           sodipodi:type="rect"
           d="m -78.748346,-22.613697 c 2.441815,0.552988 7.374104,1.468833 7.374104,1.468833 0.619744,2.733589 2.082775,7.44284 2.082775,7.44284 -2.558615,-0.445864 -7.684829,-1.64034 -7.684829,-1.64034 -0.67045,-2.322541 -1.297265,-4.680883 -1.77205,-7.271333 z" />
        <path
           style="clip-rule:evenodd;fill:#82bada;fill-opacity:1;fill-rule:evenodd;stroke:#000000;stroke-width:0.529167;stroke-linecap:square;stroke-miterlimit:2;stroke-dasharray:none;stroke-dashoffset:4.2;stroke-opacity:1"
           id="rect913-5"
           width="7.9375"
           height="7.9375"
           x="-69.126648"
           y="-32.111771"
           inkscape:tile-x0="49.076233"
           inkscape:tile-y0="-66.555328"
           transform="scale(-1)"
           sodipodi:type="rect"
           d="m -72.532313,-29.321197 c 1.320839,0.20139 2.863148,0.407656 4.529085,0.559299 1.532084,0.13946 2.782981,0.189301 2.782981,0.189301 0.227791,2.795355 1.401272,8.138593 1.401272,8.138593 -2.558377,-0.05983 -7.555267,-0.71086 -7.555267,-0.71086 -0.598704,-2.640785 -1.010521,-5.322533 -1.158071,-8.176333 z" />
        <path
           style="clip-rule:evenodd;fill:#2869ae;fill-opacity:1;fill-rule:evenodd;stroke:#000000;stroke-width:0.529167;stroke-linecap:square;stroke-miterlimit:2;stroke-dasharray:none;stroke-dashoffset:4.2;stroke-opacity:1"
           id="rect914-4"
           width="7.9375"
           height="7.9375"
           x="-69.126648"
           y="-24.174271"
           inkscape:tile-x0="49.076233"
           inkscape:tile-y0="-66.555328"
           transform="scale(-1)"
           sodipodi:type="rect"
           d="m -71.374242,-21.144864 c 1.384222,0.218433 2.970458,0.427221 4.695264,0.563466 1.579459,0.124765 2.860003,0.147394 2.860003,0.147394 0.388969,1.525335 0.83454,3.040267 1.392621,4.810464 0.49387,1.566523 0.887029,2.773996 0.887029,2.773996 -2.606188,-0.09743 -7.752142,-0.85248 -7.752142,-0.85248 -0.742378,-2.395861 -1.477179,-4.771655 -2.082775,-7.44284 z" />
      </g>
      <g
         id="g1884"
         transform="translate(0.943346)">
        <path
           style="clip-rule:evenodd;fill:#fccbc6;fill-opacity:1;fill-rule:evenodd;stroke:#000000;stroke-width:0.529167;stroke-linecap:square;stroke-miterlimit:2;stroke-dasharray:none;stroke-dashoffset:4.2;stroke-opacity:1"
           id="rect976-7"
           width="7.9375"
           height="7.9375"
           x="39.153778"
           y="-56.188866"
           inkscape:tile-x0="37"
           inkscape:tile-y0="50"
           inkscape:tile-cx="53"
           inkscape:tile-cy="66.218422"
           inkscape:tile-w="32"
           inkscape:tile-h="32.436844"
           transform="rotate(90)"
           sodipodi:type="rect"
           d="m 35.765012,-60.591354 c 1.580148,-0.0056 3.340349,0.07504 5.314998,0.298668 1.791856,0.202924 3.242599,0.468718 3.242599,0.468718 -0.0692,1.344681 -0.09958,2.936908 0.0029,4.631122 0.09461,1.564059 0.297998,2.835202 0.297998,2.835202 -1.531678,-0.21869 -3.241147,-0.398531 -5.087533,-0.469559 -1.683398,-0.06476 -3.016589,-0.01282 -3.016589,-0.01282 -0.515806,-2.62927 -0.732248,-5.227936 -0.754382,-7.751333 z" />
        <path
           style="clip-rule:evenodd;fill:#fccbc6;fill-opacity:1;fill-rule:evenodd;stroke:#000000;stroke-width:0.529167;stroke-linecap:square;stroke-miterlimit:2;stroke-dasharray:none;stroke-dashoffset:4.2;stroke-opacity:1"
           id="rect977-4"
           width="7.9375"
           height="7.9375"
           x="39.153778"
           y="-48.251366"
           inkscape:tile-x0="37"
           inkscape:tile-y0="50"
           transform="rotate(90)"
           sodipodi:type="rect"
           d="m 36.519394,-52.840021 c 1.504863,-0.04588 3.177491,-0.01799 5.043195,0.135699 1.693679,0.139514 3.060927,0.346678 3.060927,0.346678 0.21516,1.407395 0.572356,3.048229 1.196597,4.804238 0.573699,1.613834 1.256385,2.915909 1.256385,2.915909 -1.493225,-0.159104 -3.169228,-0.277848 -4.993198,-0.294845 -1.663272,-0.0155 -2.991965,0.06552 -2.991965,0.06552 -1.237148,-2.664588 -2.056283,-5.34468 -2.571941,-7.973199 z" />
        <path
           style="clip-rule:evenodd;fill:#cd238e;fill-opacity:1;fill-rule:evenodd;stroke:#000000;stroke-width:0.529167;stroke-linecap:square;stroke-miterlimit:2;stroke-dasharray:none;stroke-dashoffset:4.2;stroke-opacity:1"
           id="rect978-4"
           width="7.9375"
           height="7.9375"
           x="47.091274"
           y="-56.188866"
           inkscape:tile-x0="37"
           inkscape:tile-y0="50"
           transform="rotate(90)"
           sodipodi:type="rect"
           d="m 44.322604,-59.823968 c 2.898726,0.504975 8.788644,2.055372 8.788644,2.055372 -0.154054,1.278872 -0.299993,2.818319 -0.317376,4.416181 -0.01616,1.485022 0.104621,2.690265 0.104621,2.690265 -1.539963,-0.387037 -3.321132,-0.81057 -5.189508,-1.173074 -1.72099,-0.333908 -3.085473,-0.52242 -3.085473,-0.52242 -0.386291,-2.526788 -0.425686,-5.041447 -0.300908,-7.466324 z" />
        <path
           style="clip-rule:evenodd;fill:#ea4f9b;fill-opacity:1;fill-rule:evenodd;stroke:#000000;stroke-width:0.529167;stroke-linecap:square;stroke-miterlimit:2;stroke-dasharray:none;stroke-dashoffset:4.2;stroke-opacity:1"
           id="rect979-3"
           width="7.9375"
           height="7.9375"
           x="47.091274"
           y="-48.251366"
           inkscape:tile-x0="37"
           inkscape:tile-y0="50"
           transform="rotate(90)"
           sodipodi:type="rect"
           d="m 44.623512,-52.357644 c 2.7328,0.390184 8.274981,1.695494 8.274981,1.695494 0.124626,1.331981 0.387882,2.895093 0.956129,4.569354 0.522858,1.54053 1.21343,2.799539 1.21343,2.799539 -1.478704,-0.322144 -3.181741,-0.664317 -4.994385,-0.948009 -1.665432,-0.260653 -2.997173,-0.396232 -2.997173,-0.396232 -1.324044,-2.592551 -2.066175,-5.18998 -2.452982,-7.720146 z" />
        <path
           style="clip-rule:evenodd;fill:#480269;fill-opacity:1;fill-rule:evenodd;stroke:#000000;stroke-width:0.529167;stroke-linecap:square;stroke-miterlimit:2;stroke-dasharray:none;stroke-dashoffset:4.2;stroke-opacity:1"
           id="rect980-0"
           width="7.9375"
           height="7.9375"
           x="55.028774"
           y="-56.188866"
           inkscape:tile-x0="37"
           inkscape:tile-y0="50"
           transform="rotate(90)"
           sodipodi:type="rect"
           d="m 53.111248,-57.768596 c 1.476579,0.406638 3.69657,1.043931 5.545322,1.5475 1.850879,0.504148 3.32348,0.855158 3.32348,0.855158 -0.226922,1.237444 -0.481944,2.758768 -0.613952,4.283207 -0.12383,1.430008 -0.09091,2.584197 -0.09091,2.584197 -1.661194,-0.400077 -3.235444,-0.820444 -5.242201,-1.350786 -1.745814,-0.461381 -3.134497,-0.81283 -3.134497,-0.81283 -0.223584,-2.389624 -0.06654,-4.787899 0.212755,-7.106446 z" />
        <path
           style="clip-rule:evenodd;fill:#740e74;fill-opacity:1;fill-rule:evenodd;stroke:#000000;stroke-width:0.529167;stroke-linecap:square;stroke-miterlimit:2;stroke-dasharray:none;stroke-dashoffset:4.2;stroke-opacity:1"
           id="rect981-7"
           width="7.9375"
           height="7.9375"
           x="55.028774"
           y="-48.251366"
           inkscape:tile-x0="37"
           inkscape:tile-y0="50"
           transform="rotate(90)"
           sodipodi:type="rect"
           d="m 52.898493,-50.66215 c 1.819731,0.457351 3.052611,0.795115 5.230272,1.366133 1.748873,0.458582 3.146426,0.797483 3.146426,0.797483 0.02924,1.274772 0.184563,2.775035 0.665669,4.381614 0.443076,1.479586 1.101163,2.701251 1.101163,2.701251 -2.652925,-0.61814 -7.973971,-1.877588 -7.973971,-1.877588 -1.332638,-2.500802 -1.945159,-4.970546 -2.169559,-7.368893 z" />
        <path
           style="clip-rule:evenodd;fill:#faabb8;fill-opacity:1;fill-rule:evenodd;stroke:#000000;stroke-width:0.529167;stroke-linecap:square;stroke-miterlimit:2;stroke-dasharray:none;stroke-dashoffset:4.2;stroke-opacity:1"
           id="rect982-8"
           width="7.9375"
           height="7.9375"
           x="62.966274"
           y="-56.188866"
           inkscape:tile-x0="37"
           inkscape:tile-y0="50"
           transform="rotate(90)"
           sodipodi:type="rect"
           d="m 61.98005,-55.365938 c 1.615973,0.383964 3.539988,0.784913 5.498372,1.001343 1.820616,0.201205 3.253739,0.165426 3.253739,0.165426 -0.276038,1.266502 -0.619509,2.881424 -0.842444,4.427884 -0.211944,1.470211 -0.257026,2.646098 -0.257026,2.646098 -2.765437,-0.143496 -8.3575,-1.373347 -8.3575,-1.373347 -0.05237,-2.282971 0.290246,-4.606448 0.704859,-6.867404 z" />
        <path
           style="clip-rule:evenodd;fill:#fef6f3;fill-opacity:1;fill-rule:evenodd;stroke:#000000;stroke-width:0.529167;stroke-linecap:square;stroke-miterlimit:2;stroke-dasharray:none;stroke-dashoffset:4.2;stroke-opacity:1"
           id="rect983-6"
           width="7.9375"
           height="7.9375"
           x="62.966274"
           y="-48.251366"
           inkscape:tile-x0="37"
           inkscape:tile-y0="50"
           transform="rotate(90)"
           sodipodi:type="rect"
           d="m 61.275191,-48.498534 c 1.52738,0.367848 3.367829,0.775585 5.235728,1.052247 1.741264,0.257904 3.121772,0.3211 3.121772,0.3211 -0.05485,1.298104 -0.001,2.825703 0.384129,4.441672 0.35529,1.490645 0.957604,2.711785 0.957604,2.711785 -2.618702,-0.267855 -7.932401,-1.443939 -7.932401,-1.443939 -1.264031,-2.42255 -1.714115,-4.784592 -1.766832,-7.082865 z" />
        <path
           style="clip-rule:evenodd;fill:#740e74;fill-opacity:1;fill-rule:evenodd;stroke:#000000;stroke-width:0.529167;stroke-linecap:square;stroke-miterlimit:2;stroke-dasharray:none;stroke-dashoffset:4.2;stroke-opacity:1"
           id="rect984-8"
           width="7.9375"
           height="7.9375"
           x="70.903778"
           y="-56.188866"
           inkscape:tile-x0="37"
           inkscape:tile-y0="50"
           transform="rotate(90)"
           sodipodi:type="rect"
           d="m 70.732165,-54.199169 c 1.591112,-0.02576 3.417772,-0.228572 5.305045,-0.860615 1.735703,-0.581283 3.087563,-1.434161 3.087563,-1.434161 -0.295401,1.433228 -0.691485,3.351693 -0.966206,5.121808 -0.26471,1.705604 -0.360268,3.058247 -0.360268,3.058247 -1.509526,0.601737 -3.179197,1.002388 -5.070294,1.154733 -1.710451,0.137792 -3.09531,0.03397 -3.09531,0.03397 0.09799,-2.319273 0.589182,-4.732705 1.09947,-7.073982 z" />
        <path
           style="clip-rule:evenodd;fill:#faabb8;fill-opacity:1;fill-rule:evenodd;stroke:#000000;stroke-width:0.529167;stroke-linecap:square;stroke-miterlimit:2;stroke-dasharray:none;stroke-dashoffset:4.2;stroke-opacity:1"
           id="rect985-8"
           width="7.9375"
           height="7.9375"
           x="70.903778"
           y="-48.251366"
           inkscape:tile-x0="37"
           inkscape:tile-y0="50"
           transform="rotate(90)"
           sodipodi:type="rect"
           d="m 69.632695,-47.125187 c 1.530334,0.07941 3.299378,0.04418 5.139312,-0.308885 1.69443,-0.325144 3.026292,-0.879818 3.026292,-0.879818 -0.108799,1.490997 -0.12376,3.242623 0.192602,5.036721 0.292678,1.659781 0.850377,2.963303 0.850377,2.963303 -1.477604,0.336515 -3.092872,0.516994 -4.908008,0.508072 -1.641187,-0.0081 -2.958842,-0.165936 -2.958842,-0.165936 -1.152404,-2.422165 -1.44074,-4.810093 -1.341733,-7.153457 z" />
      </g>
      <g
         id="g1885">
        <path
           style="clip-rule:evenodd;fill:#9a9a9a;fill-opacity:1;fill-rule:evenodd;stroke:#000000;stroke-width:0.529167;stroke-linecap:square;stroke-miterlimit:2;stroke-dasharray:none;stroke-dashoffset:4.2;stroke-opacity:1"
           id="use1783-3"
           width="7.9375"
           height="7.9374995"
           x="39.153778"
           y="-69.126656"
           inkscape:tile-x0="91.576823"
           inkscape:tile-y0="129.22525"
           transform="rotate(90)"
           sodipodi:type="rect"
           d="m 36.671453,-72.561575 c 1.6399,0.05962 3.464678,0.211446 5.521421,0.509127 1.864604,0.269873 3.373848,0.582975 3.373848,0.582975 -0.334009,2.296676 -0.940273,7.007968 -0.940273,7.007968 -1.663105,-0.309061 -3.518784,-0.586301 -5.511059,-0.748786 -1.817146,-0.148202 -3.244853,-0.150326 -3.244853,-0.150326 0.151111,-2.457634 0.447948,-4.864081 0.800916,-7.200958 z" />
        <path
           style="clip-rule:evenodd;fill:#c9c9c9;fill-opacity:1;fill-rule:evenodd;stroke:#000000;stroke-width:0.529167;stroke-linecap:square;stroke-miterlimit:2;stroke-dasharray:none;stroke-dashoffset:4.2;stroke-opacity:1"
           id="use1784-1"
           width="7.9375"
           height="7.9374995"
           x="47.091278"
           y="-69.126656"
           inkscape:tile-x0="91.576823"
           inkscape:tile-y0="129.22525"
           transform="rotate(90)"
           sodipodi:type="rect"
           d="m 45.566722,-71.469473 c 2.99639,0.596396 9.119641,2.259858 9.119641,2.259858 -0.304555,2.307329 -1.066285,6.932211 -1.066285,6.932211 -1.660246,-0.466542 -3.618574,-1.00236 -5.639713,-1.475865 -1.872078,-0.438583 -3.353916,-0.708236 -3.353916,-0.708236 0.252032,-2.324374 0.614884,-4.770563 0.940273,-7.007968 z" />
        <path
           style="clip-rule:evenodd;fill:#a3a3a3;fill-opacity:1;fill-rule:evenodd;stroke:#000000;stroke-width:0.529167;stroke-linecap:square;stroke-miterlimit:2;stroke-dasharray:none;stroke-dashoffset:4.2;stroke-opacity:1"
           id="use1785-4"
           width="7.9375"
           height="7.9374995"
           x="55.028778"
           y="-69.126656"
           inkscape:tile-x0="91.576823"
           inkscape:tile-y0="129.22525"
           transform="rotate(90)"
           sodipodi:type="rect"
           d="m 54.686363,-69.209615 c 1.539623,0.426811 3.801596,1.064628 5.710728,1.550364 1.898525,0.483038 3.399517,0.788812 3.399517,0.788812 -0.265018,2.425792 -1.134207,7.042959 -1.134207,7.042959 -1.736771,-0.400136 -3.520318,-0.884282 -5.646115,-1.485893 -1.886784,-0.533969 -3.396208,-0.964031 -3.396208,-0.964031 0.388912,-2.461828 0.741588,-4.472289 1.066285,-6.932211 z" />
        <path
           style="clip-rule:evenodd;fill:#e1e1e1;fill-opacity:1;fill-rule:evenodd;stroke:#000000;stroke-width:0.529167;stroke-linecap:square;stroke-miterlimit:2;stroke-dasharray:none;stroke-dashoffset:4.2;stroke-opacity:1"
           id="use1786-9"
           width="7.9375"
           height="7.9374995"
           x="62.966278"
           y="-69.126656"
           inkscape:tile-x0="91.576823"
           inkscape:tile-y0="129.22525"
           transform="rotate(90)"
           sodipodi:type="rect"
           d="m 63.796608,-66.870439 c 1.653838,0.338115 3.597585,0.657292 5.579122,0.742889 1.83682,0.07935 3.272169,-0.09763 3.272169,-0.09763 -0.201761,2.53208 -1.11855,7.411189 -1.11855,7.411189 -2.899183,0.147666 -8.866948,-1.013493 -8.866948,-1.013493 0.463428,-2.36594 0.865647,-4.58474 1.134207,-7.042959 z" />
        <path
           style="clip-rule:evenodd;fill:#cccccc;fill-opacity:1;fill-rule:evenodd;stroke:#000000;stroke-width:0.529167;stroke-linecap:square;stroke-miterlimit:2;stroke-dasharray:none;stroke-dashoffset:4.2;stroke-opacity:1"
           id="use1787-2"
           width="7.9375"
           height="7.9374995"
           x="70.90377"
           y="-69.126656"
           inkscape:tile-x0="91.576823"
           inkscape:tile-y0="129.22525"
           transform="rotate(90)"
           sodipodi:type="rect"
           d="m 72.647891,-66.225175 c 1.596234,-0.178201 3.41437,-0.592579 5.283519,-1.520662 1.716337,-0.852207 3.043474,-1.986005 3.043474,-1.986005 -0.127297,2.678948 -1.013084,8.109587 -1.013084,8.109587 -1.531405,1.07217 -3.244456,1.88051 -5.204549,2.352986 -1.772224,0.42719 -3.22791,0.455283 -3.22791,0.455283 0.511192,-2.463437 0.912982,-4.831333 1.11855,-7.411189 z" />
        <path
           style="clip-rule:evenodd;fill:#888888;fill-opacity:1;fill-rule:evenodd;stroke:#000000;stroke-width:0.529167;stroke-linecap:square;stroke-miterlimit:2;stroke-dasharray:none;stroke-dashoffset:4.2;stroke-opacity:1"
           id="use1793-0"
           width="7.9375"
           height="7.9374995"
           x="39.153778"
           y="-77.064156"
           inkscape:tile-x0="91.576823"
           inkscape:tile-y0="129.22525"
           transform="rotate(90)"
           sodipodi:type="rect"
           d="m 37.835146,-79.466466 c 2.825414,0.172908 8.641795,1.168359 8.641795,1.168359 -0.253686,2.245313 -0.910219,6.828633 -0.910219,6.828633 -1.688236,-0.336023 -3.57726,-0.650652 -5.600239,-0.859997 -1.846495,-0.191081 -3.29503,-0.232104 -3.29503,-0.232104 0.351308,-2.325884 0.768936,-4.649659 1.163693,-6.904891 z" />
        <path
           style="clip-rule:evenodd;fill:#b0b0b0;fill-opacity:1;fill-rule:evenodd;stroke:#000000;stroke-width:0.529167;stroke-linecap:square;stroke-miterlimit:2;stroke-dasharray:none;stroke-dashoffset:4.2;stroke-opacity:1"
           id="use1794-6"
           width="7.9375"
           height="7.9374995"
           x="47.091278"
           y="-77.064156"
           inkscape:tile-x0="91.576823"
           inkscape:tile-y0="129.22525"
           transform="rotate(90)"
           sodipodi:type="rect"
           d="m 46.476941,-78.298107 c 2.916398,0.579623 8.830899,2.073892 8.830899,2.073892 -0.09991,2.373418 -0.621477,7.0146 -0.621477,7.0146 -1.666254,-0.461916 -3.675772,-1.013504 -5.714085,-1.505794 -1.899928,-0.458869 -3.405556,-0.754065 -3.405556,-0.754065 0.343679,-2.363169 0.646343,-4.493132 0.910219,-6.828633 z" />
        <path
           style="clip-rule:evenodd;fill:#cfcfcf;fill-opacity:1;fill-rule:evenodd;stroke:#000000;stroke-width:0.529167;stroke-linecap:square;stroke-miterlimit:2;stroke-dasharray:none;stroke-dashoffset:4.2;stroke-opacity:1"
           id="use1795-8"
           width="7.9375"
           height="7.9374995"
           x="55.028778"
           y="-77.064156"
           inkscape:tile-x0="91.576823"
           inkscape:tile-y0="129.22525"
           transform="rotate(90)"
           sodipodi:type="rect"
           d="m 55.30784,-76.224215 c 1.553897,0.392139 3.608544,0.910612 5.516031,1.325541 1.831855,0.398477 3.279132,0.630952 3.279132,0.630952 0.0594,2.539892 -0.306395,7.397283 -0.306395,7.397283 -1.732155,-0.354127 -3.546243,-0.811186 -5.679971,-1.391043 -1.905255,-0.517767 -3.430274,-0.948133 -3.430274,-0.948133 0.311085,-2.356795 0.51981,-4.59954 0.621477,-7.0146 z" />
        <path
           style="clip-rule:evenodd;fill:#d8d8d8;fill-opacity:1;fill-rule:evenodd;stroke:#000000;stroke-width:0.529167;stroke-linecap:square;stroke-miterlimit:2;stroke-dasharray:none;stroke-dashoffset:4.2;stroke-opacity:1"
           id="use1796-9"
           width="7.9375"
           height="7.9374995"
           x="62.966278"
           y="-77.064156"
           inkscape:tile-x0="91.576823"
           inkscape:tile-y0="129.22525"
           transform="rotate(90)"
           sodipodi:type="rect"
           d="m 64.103003,-74.267722 c 1.597866,0.259478 3.464151,0.481662 5.375515,0.476713 1.768346,-0.0046 3.150075,-0.236572 3.150075,-0.236572 0.117536,1.502781 0.18998,3.150513 0.158925,4.925974 -0.02823,1.61392 -0.139619,2.876431 -0.139619,2.876431 -1.633983,0.182416 -3.431416,0.160733 -5.488026,-0.08773 -1.857927,-0.224461 -3.363265,-0.557533 -3.363265,-0.557533 0.266219,-2.436786 0.366683,-4.81921 0.306395,-7.397283 z" />
        <path
           style="clip-rule:evenodd;fill:#c1c1c1;fill-opacity:1;fill-rule:evenodd;stroke:#000000;stroke-width:0.529167;stroke-linecap:square;stroke-miterlimit:2;stroke-dasharray:none;stroke-dashoffset:4.2;stroke-opacity:1"
           id="use1797-2"
           width="7.9375"
           height="7.9374995"
           x="70.90377"
           y="-77.064156"
           inkscape:tile-x0="91.576823"
           inkscape:tile-y0="129.22525"
           transform="rotate(90)"
           sodipodi:type="rect"
           d="m 72.628585,-74.02758 c 1.537418,-0.239572 3.284655,-0.711949 5.084272,-1.664024 1.651706,-0.873823 2.928905,-1.987157 2.928905,-1.987157 0.188779,1.47113 0.337305,3.122261 0.374517,4.946083 0.03388,1.660402 -0.04139,3.000833 -0.04139,3.000833 -1.50304,1.239238 -3.190781,2.210238 -5.128384,2.832153 -1.751572,0.562205 -3.198609,0.674517 -3.198609,0.674517 0.204744,-2.569511 0.192656,-5.092317 -0.01931,-7.802405 z" />
        <path
           style="clip-rule:evenodd;fill:#e1e1e1;fill-opacity:1;fill-rule:evenodd;stroke:#000000;stroke-width:0.529167;stroke-linecap:square;stroke-miterlimit:2;stroke-dasharray:none;stroke-dashoffset:4.2;stroke-opacity:1"
           id="use1803-6"
           width="7.9375"
           height="7.9374995"
           x="39.153778"
           y="-85.001656"
           inkscape:tile-x0="91.576823"
           inkscape:tile-y0="129.22525"
           transform="rotate(90)"
           sodipodi:type="rect"
           d="m 38.927855,-86.297229 c 2.672347,0.218221 8.132854,1.112893 8.132854,1.112893 -0.134455,2.341641 -0.583768,6.886229 -0.583768,6.886229 -1.634754,-0.324901 -3.473915,-0.64303 -5.437395,-0.877305 -1.794709,-0.214137 -3.2044,-0.291054 -3.2044,-0.291054 0.399801,-2.284045 0.780225,-4.519515 1.092709,-6.830763 z" />
        <path
           style="clip-rule:evenodd;fill:#d3d3d3;fill-opacity:1;fill-rule:evenodd;stroke:#000000;stroke-width:0.529167;stroke-linecap:square;stroke-miterlimit:2;stroke-dasharray:none;stroke-dashoffset:4.2;stroke-opacity:1"
           id="use1804-6"
           width="7.9375"
           height="7.9374995"
           x="47.091278"
           y="-85.001656"
           inkscape:tile-x0="91.576823"
           inkscape:tile-y0="129.22525"
           transform="rotate(90)"
           sodipodi:type="rect"
           d="m 47.060709,-85.184336 c 2.741936,0.4988 8.263062,1.665425 8.263062,1.665425 0.06767,2.503583 -0.01593,7.294696 -0.01593,7.294696 -1.579027,-0.39848 -3.587061,-0.910099 -5.529813,-1.359977 -1.840512,-0.426202 -3.301086,-0.713915 -3.301086,-0.713915 0.260914,-2.309283 0.447095,-4.505961 0.583768,-6.886229 z" />
        <path
           style="clip-rule:evenodd;fill:#d1d1d1;fill-opacity:1;fill-rule:evenodd;stroke:#000000;stroke-width:0.529167;stroke-linecap:square;stroke-miterlimit:2;stroke-dasharray:none;stroke-dashoffset:4.2;stroke-opacity:1"
           id="use1805-4"
           width="7.9375"
           height="7.9374995"
           x="55.028778"
           y="-85.001656"
           inkscape:tile-x0="91.576823"
           inkscape:tile-y0="129.22525"
           transform="rotate(90)"
           sodipodi:type="rect"
           d="m 55.323771,-83.518911 c 1.486436,0.304636 3.339324,0.674066 5.158114,0.96707 1.713602,0.276059 3.070775,0.417298 3.070775,0.417298 0.148014,1.493094 0.311724,3.218783 0.422586,4.976141 0.102507,1.624941 0.127757,2.89068 0.127757,2.89068 -2.880438,-0.467755 -8.795163,-1.956493 -8.795163,-1.956493 0.102222,-2.428263 0.08508,-4.736533 0.01593,-7.294696 z" />
        <path
           style="clip-rule:evenodd;fill:#b3b3b3;fill-opacity:1;fill-rule:evenodd;stroke:#000000;stroke-width:0.529167;stroke-linecap:square;stroke-miterlimit:2;stroke-dasharray:none;stroke-dashoffset:4.2;stroke-opacity:1"
           id="use1806-9"
           width="7.9375"
           height="7.9374995"
           x="62.966278"
           y="-85.001656"
           inkscape:tile-x0="91.576823"
           inkscape:tile-y0="129.22525"
           transform="rotate(90)"
           sodipodi:type="rect"
           d="m 63.55266,-82.134543 c 1.501304,0.160212 3.24552,0.273827 5.048863,0.19785 1.664692,-0.07013 2.971543,-0.311198 2.971543,-0.311198 0.241116,1.534471 0.524751,3.356186 0.747965,5.185384 0.207775,1.70268 0.307562,3.034925 0.307562,3.034925 -1.571407,0.244869 -3.304293,0.305122 -5.284271,0.155282 -1.78944,-0.13542 -3.241319,-0.395422 -3.241319,-0.395422 -0.06094,-2.605913 -0.275251,-5.09182 -0.550343,-7.866821 z" />
        <path
           style="clip-rule:evenodd;fill:#e9e9e9;fill-opacity:1;fill-rule:evenodd;stroke:#000000;stroke-width:0.529167;stroke-linecap:square;stroke-miterlimit:2;stroke-dasharray:none;stroke-dashoffset:4.2;stroke-opacity:1"
           id="use1807-5"
           width="7.9375"
           height="7.9374995"
           x="70.90377"
           y="-85.001656"
           inkscape:tile-x0="91.576823"
           inkscape:tile-y0="129.22525"
           transform="rotate(90)"
           sodipodi:type="rect"
           d="m 71.573059,-82.247889 c 1.454515,-0.252467 3.108262,-0.699785 4.825622,-1.526353 1.575883,-0.758476 2.802062,-1.684443 2.802062,-1.684443 0.301968,1.394069 0.676332,3.111413 0.986495,4.845245 0.290599,1.62447 0.454524,2.934677 0.454524,2.934677 -1.446212,1.218564 -3.071179,2.202746 -4.93506,2.873267 -1.68533,0.606287 -3.078117,0.777915 -3.078117,0.777915 -0.214833,-2.74678 -0.602828,-5.339317 -1.055526,-8.220308 z" />
        <path
           style="clip-rule:evenodd;fill:#dfdfdf;fill-opacity:1;fill-rule:evenodd;stroke:#000000;stroke-width:0.529167;stroke-linecap:square;stroke-miterlimit:2;stroke-dasharray:none;stroke-dashoffset:4.2;stroke-opacity:1"
           id="use1813-0"
           width="7.9375"
           height="7.9374995"
           x="39.153778"
           y="-92.939156"
           inkscape:tile-x0="91.576823"
           inkscape:tile-y0="129.22525"
           transform="rotate(90)"
           sodipodi:type="rect"
           d="m 39.598744,-93.419057 c 2.570268,0.225546 7.749042,0.935902 7.749042,0.935902 -0.07675,2.551497 -0.287077,7.298819 -0.287077,7.298819 -1.527033,-0.277791 -3.264583,-0.565193 -5.108516,-0.79729 -1.690448,-0.212777 -3.024338,-0.315603 -3.024338,-0.315603 0.311947,-2.307279 0.549384,-4.641741 0.670889,-7.121828 z" />
        <path
           style="clip-rule:evenodd;fill:#e9e9e9;fill-opacity:1;fill-rule:evenodd;stroke:#000000;stroke-width:0.529167;stroke-linecap:square;stroke-miterlimit:2;stroke-dasharray:none;stroke-dashoffset:4.2;stroke-opacity:1"
           id="use1814-4"
           width="7.9375"
           height="7.9374995"
           x="47.091278"
           y="-92.939156"
           inkscape:tile-x0="91.576823"
           inkscape:tile-y0="129.22525"
           transform="rotate(90)"
           sodipodi:type="rect"
           d="m 47.347786,-92.483155 c 2.592292,0.376126 7.775381,1.157342 7.775381,1.157342 0.01435,2.79914 0.200604,7.806901 0.200604,7.806901 -2.758618,-0.565363 -8.263062,-1.665424 -8.263062,-1.665424 0.139132,-2.423118 0.207906,-4.666707 0.287077,-7.298819 z" />
        <path
           style="clip-rule:evenodd;fill:#b4b4b4;fill-opacity:1;fill-rule:evenodd;stroke:#000000;stroke-width:0.529167;stroke-linecap:square;stroke-miterlimit:2;stroke-dasharray:none;stroke-dashoffset:4.2;stroke-opacity:1"
           id="use1815-8"
           width="7.9375"
           height="7.9374995"
           x="55.028778"
           y="-92.939156"
           inkscape:tile-x0="91.576823"
           inkscape:tile-y0="129.22525"
           transform="rotate(90)"
           sodipodi:type="rect"
           d="m 55.123167,-91.325813 c 1.415125,0.198818 3.111154,0.421142 4.839101,0.587298 1.608094,0.154631 2.886368,0.216022 2.886368,0.216022 0.124447,2.961175 0.704024,8.38795 0.704024,8.38795 -2.701347,-0.288274 -8.228889,-1.384369 -8.228889,-1.384369 -0.06295,-2.328751 -0.187577,-5.265147 -0.200604,-7.806901 z" />
        <path
           style="clip-rule:evenodd;fill:#929292;fill-opacity:1;fill-rule:evenodd;stroke:#000000;stroke-width:0.529167;stroke-linecap:square;stroke-miterlimit:2;stroke-dasharray:none;stroke-dashoffset:4.2;stroke-opacity:1"
           id="use1816-7"
           width="7.9375"
           height="7.9374995"
           x="62.966278"
           y="-92.939156"
           inkscape:tile-x0="91.576823"
           inkscape:tile-y0="129.22525"
           transform="rotate(90)"
           sodipodi:type="rect"
           d="m 62.848636,-90.522493 c 1.417642,0.07227 3.054451,0.100847 4.771307,-0.0029 1.580538,-0.09551 2.832782,-0.295827 2.832782,-0.295827 0.117158,1.667857 0.332227,3.400396 0.627927,5.393508 0.264177,1.78063 0.492414,3.17982 0.492414,3.17982 -1.483925,0.257571 -3.119919,0.374217 -4.978845,0.323915 -1.680785,-0.04548 -3.041561,-0.210567 -3.041561,-0.210567 -0.259661,-2.619341 -0.58656,-5.592927 -0.704024,-8.38795 z" />
        <path
           style="clip-rule:evenodd;fill:#868686;fill-opacity:1;fill-rule:evenodd;stroke:#000000;stroke-width:0.529167;stroke-linecap:square;stroke-miterlimit:2;stroke-dasharray:none;stroke-dashoffset:4.2;stroke-opacity:1"
           id="use1817-1"
           width="7.9375"
           height="7.9374995"
           x="70.90377"
           y="-92.939156"
           inkscape:tile-x0="91.576823"
           inkscape:tile-y0="129.22525"
           transform="rotate(90)"
           sodipodi:type="rect"
           d="m 70.452718,-90.821218 c 1.394562,-0.211801 2.983294,-0.557696 4.661271,-1.14826 1.538827,-0.54159 2.754751,-1.173094 2.754751,-1.173094 0.119964,1.468624 0.366449,3.008361 0.723194,4.79758 0.31934,1.601616 0.608809,2.886307 0.608809,2.886307 -1.387834,1.015061 -2.941421,1.860224 -4.711261,2.467935 -1.601499,0.549908 -2.916424,0.74286 -2.916424,0.74286 -0.429929,-2.736086 -0.921308,-5.739921 -1.12034,-8.573328 z" />
        <path
           style="clip-rule:evenodd;fill:#8f8f8f;fill-opacity:1;fill-rule:evenodd;stroke:#000000;stroke-width:0.529167;stroke-linecap:square;stroke-miterlimit:2;stroke-dasharray:none;stroke-dashoffset:4.2;stroke-opacity:1"
           id="use1823-7"
           width="7.9375"
           height="7.9374995"
           x="39.153778"
           y="-100.87665"
           inkscape:tile-x0="91.576823"
           inkscape:tile-y0="129.22525"
           transform="rotate(90)"
           sodipodi:type="rect"
           d="m 39.5799,-101.34039 c 2.725438,0.17604 8.114195,0.67278 8.114195,0.67278 -0.201565,3.083974 -0.346309,8.184462 -0.346309,8.184462 -2.592291,-0.376126 -7.749042,-0.935903 -7.749042,-0.935903 0.121563,-2.48125 0.125519,-5.07392 -0.01884,-7.921339" />
        <path
           style="clip-rule:evenodd;fill:#a6a6a6;fill-opacity:1;fill-rule:evenodd;stroke:#000000;stroke-width:0.529167;stroke-linecap:square;stroke-miterlimit:2;stroke-dasharray:none;stroke-dashoffset:4.2;stroke-opacity:1"
           id="use1824-2"
           width="7.9375"
           height="7.9374995"
           x="47.091278"
           y="-100.87665"
           inkscape:tile-x0="91.576823"
           inkscape:tile-y0="129.22525"
           transform="rotate(90)"
           sodipodi:type="rect"
           d="m 47.694095,-100.66761 c 2.680491,0.2561 7.950687,0.756196 7.950687,0.756196 -0.444447,3.024737 -0.521615,8.585609 -0.521615,8.585609 -2.591946,-0.364154 -7.775381,-1.157343 -7.775381,-1.157343 0.07485,-2.488305 0.158425,-5.309803 0.34631,-8.184462" />
        <path
           style="clip-rule:evenodd;fill:#b1b1b1;fill-opacity:1;fill-rule:evenodd;stroke:#000000;stroke-width:0.529167;stroke-linecap:square;stroke-miterlimit:2;stroke-dasharray:none;stroke-dashoffset:4.2;stroke-opacity:1"
           id="use1825-7"
           width="7.9375"
           height="7.9374995"
           x="55.028778"
           y="-100.87665"
           inkscape:tile-x0="91.576823"
           inkscape:tile-y0="129.22525"
           transform="rotate(90)"
           sodipodi:type="rect"
           d="m 55.644782,-99.911414 c 2.620695,0.228805 7.781185,0.491881 7.781185,0.491881 -0.626574,3.044503 -0.57733,8.897048 -0.57733,8.897048 -2.559276,-0.130475 -7.72547,-0.80332 -7.72547,-0.80332 -0.01379,-2.691449 0.08095,-5.58659 0.521617,-8.585609" />
        <path
           style="clip-rule:evenodd;fill:#e1e1e1;fill-opacity:1;fill-rule:evenodd;stroke:#000000;stroke-width:0.529167;stroke-linecap:square;stroke-miterlimit:2;stroke-dasharray:none;stroke-dashoffset:4.2;stroke-opacity:1"
           id="use1826-2"
           width="7.9375"
           height="7.9374995"
           x="62.966278"
           y="-100.87665"
           inkscape:tile-x0="91.576823"
           inkscape:tile-y0="129.22525"
           transform="rotate(90)"
           sodipodi:type="rect"
           d="m 63.425967,-99.419533 c 1.428031,0.04276 3.066341,0.05831 4.805734,-0.002 1.597795,-0.05541 2.877038,-0.169556 2.877038,-0.169556 -0.449584,1.664285 -0.699758,3.468379 -0.744808,5.493113 -0.04065,1.826864 0.0888,3.276779 0.0888,3.276779 -2.507426,0.38082 -7.604089,0.298726 -7.604089,0.298726 -0.120295,-2.862391 -0.04491,-5.87359 0.577332,-8.897048" />
        <path
           style="clip-rule:evenodd;fill:#d8d8d8;fill-opacity:1;fill-rule:evenodd;stroke:#000000;stroke-width:0.529167;stroke-linecap:square;stroke-miterlimit:2;stroke-dasharray:none;stroke-dashoffset:4.2;stroke-opacity:1"
           id="use1827-2"
           width="7.9375"
           height="7.9374995"
           x="70.90377"
           y="-100.87665"
           inkscape:tile-x0="91.576823"
           inkscape:tile-y0="129.22525"
           transform="rotate(90)"
           sodipodi:type="rect"
           d="m 71.108732,-99.591102 c 1.426097,-0.120602 3.054207,-0.315325 4.814579,-0.642218 1.612123,-0.29936 2.917956,-0.64332 2.917956,-0.64332 -0.586612,1.480443 -0.933874,3.071356 -1.027033,4.850129 -0.08403,1.604568 0.05451,2.883949 0.05451,2.883949 -1.374249,0.693182 -2.898374,1.290627 -4.609731,1.742869 -1.550308,0.409683 -2.806291,0.578483 -2.806291,0.578483 -0.202553,-2.883522 -0.131013,-5.856462 0.656016,-8.769892" />
      </g>
    </g>
  </g>
</svg>
